<?xml version="1.0" encoding="utf-8"?>
<!-- Generator: Adobe Illustrator 25.1.0, SVG Export Plug-In . SVG Version: 6.00 Build 0)  -->
<svg version="1.1" id="레이어_1" xmlns="http://www.w3.org/2000/svg" xmlns:xlink="http://www.w3.org/1999/xlink" x="0px"
	 y="0px" viewBox="0 0 105.8 28" style="enable-background:new 0 0 105.8 28;" xml:space="preserve">
<style type="text/css">
	.st0{fill:#191919;}
	.st1{fill:#FFFFFF;}
</style>
<rect x="0" y="0" class="st0" width="105.8" height="28"/>
<g>
	<path class="st1" d="M15.3,13.2c0,0.6-0.1,1.3-0.5,1.8c-0.3,0.5-0.7,0.9-1.2,1.2c-0.4,0.2-0.7,0.4-1.2,0.5c-0.5,0.1-1,0.1-1.5,0.1
		H8.4V9.5H11c0.5,0,1,0,1.5,0.1c0.4,0.1,0.7,0.2,1.1,0.4c0.5,0.3,0.9,0.7,1.2,1.2C15.1,11.9,15.3,12.5,15.3,13.2z M13.3,13.2
		c0-0.4-0.1-0.8-0.3-1.2c-0.2-0.4-0.5-0.6-0.8-0.8c-0.2-0.1-0.4-0.2-0.6-0.2c-0.3,0-0.6,0-0.9,0h-0.5v4.6h0.5c0.3,0,0.7,0,1-0.1
		c0.2,0,0.4-0.1,0.6-0.2c0.3-0.2,0.6-0.5,0.8-0.8C13.3,14,13.4,13.6,13.3,13.2L13.3,13.2z"/>
	<path class="st1" d="M22,14.4h-4c0,0.4,0.2,0.8,0.5,1c0.4,0.3,0.9,0.4,1.3,0.3c0.4,0,0.7-0.1,1.1-0.2c0.3-0.1,0.6-0.2,0.8-0.4h0.2
		v1.4c-0.4,0.2-0.7,0.3-1.1,0.4C20.4,16.9,20,17,19.6,17c-0.9,0.1-1.8-0.2-2.5-0.8c-0.6-0.5-0.9-1.3-0.9-2.1c0-0.8,0.3-1.6,0.8-2.2
		c0.6-0.6,1.4-0.8,2.3-0.8c0.7-0.1,1.5,0.2,2,0.7c0.5,0.5,0.7,1.2,0.7,1.9V14.4z M20.3,13.4c0-0.3-0.1-0.6-0.3-0.8
		c-0.2-0.2-0.5-0.3-0.8-0.3c-0.3,0-0.6,0.1-0.8,0.3c-0.2,0.2-0.4,0.5-0.4,0.8L20.3,13.4z"/>
	<path class="st1" d="M28,15.1c0,0.6-0.3,1.1-0.8,1.4c-0.6,0.4-1.4,0.6-2.1,0.5c-0.4,0-0.9,0-1.3-0.1c-0.3-0.1-0.6-0.2-1-0.3v-1.4
		H23l0.3,0.2c0.3,0.2,0.7,0.3,1.1,0.4c0.2,0.1,0.5,0.1,0.8,0.1c0.3,0,0.5,0,0.8-0.1c0.1,0,0.2-0.2,0.3-0.3c0-0.1,0-0.2-0.1-0.3
		c-0.2-0.1-0.4-0.1-0.6-0.2L25,14.8c-0.2,0-0.4-0.1-0.6-0.1c-0.4-0.1-0.8-0.3-1.1-0.6c-0.2-0.3-0.4-0.6-0.4-1c0-0.5,0.3-1,0.8-1.3
		c0.6-0.4,1.3-0.6,2-0.5c0.4,0,0.8,0,1.2,0.1c0.3,0.1,0.6,0.1,0.9,0.3v1.4h-0.1c-0.3-0.2-0.6-0.3-0.9-0.4c-0.3-0.1-0.7-0.2-1-0.2
		c-0.2,0-0.5,0-0.7,0.1c-0.2,0.1-0.3,0.2-0.3,0.3c0,0.1,0,0.2,0.1,0.3c0.2,0.1,0.4,0.2,0.6,0.2l0.6,0.1l0.6,0.1
		c0.4,0.1,0.7,0.3,1,0.6C27.9,14.4,28,14.7,28,15.1z"/>
	<path class="st1" d="M31,10.5h-1.9V9.2H31V10.5z M31,16.8h-1.8v-5.5H31V16.8z"/>
	<path class="st1" d="M37.9,16.2c0,0.4-0.1,0.9-0.2,1.3c-0.1,0.3-0.3,0.6-0.6,0.8c-0.3,0.2-0.6,0.4-1,0.4c-0.4,0.1-0.8,0.1-1.3,0.1
		c-0.4,0-0.7,0-1.1-0.1c-0.3,0-0.7-0.1-1-0.2v-1.4H33c0.3,0.1,0.5,0.2,0.8,0.2c0.3,0.1,0.6,0.1,0.8,0.1c0.3,0,0.5,0,0.8-0.1
		c0.2,0,0.3-0.1,0.5-0.3c0.1-0.1,0.2-0.3,0.2-0.4c0-0.2,0.1-0.4,0.1-0.6v-0.1c-0.2,0.2-0.4,0.3-0.7,0.4c-0.3,0.1-0.6,0.2-0.9,0.1
		c-0.7,0-1.3-0.2-1.8-0.7c-0.5-0.6-0.7-1.4-0.6-2.1c0-0.4,0.1-0.8,0.2-1.2c0.1-0.3,0.3-0.6,0.5-0.9c0.2-0.2,0.5-0.4,0.8-0.5
		c0.3-0.1,0.7-0.2,1-0.2c0.3,0,0.5,0,0.8,0.1c0.2,0.1,0.5,0.2,0.7,0.3l0.1-0.2H38L37.9,16.2z M36.2,15.1v-2.5
		c-0.1-0.1-0.2-0.1-0.4-0.1c-0.1,0-0.3,0-0.4,0c-0.4,0-0.7,0.1-1,0.4C34.1,13.2,34,13.6,34,14c0,0.4,0.1,0.8,0.3,1.1
		c0.2,0.2,0.5,0.3,0.9,0.3c0.2,0,0.4,0,0.5-0.1C35.9,15.3,36,15.2,36.2,15.1z"/>
	<path class="st1" d="M45.1,16.8h-1.8v-2.7c0-0.2,0-0.4,0-0.7c0-0.2-0.1-0.3-0.1-0.5c-0.1-0.1-0.2-0.2-0.3-0.3
		c-0.2-0.1-0.3-0.1-0.5-0.1c-0.2,0-0.3,0-0.5,0.1c-0.2,0.1-0.4,0.2-0.5,0.3v3.9h-1.8v-5.5h1.8v0.6c0.3-0.2,0.6-0.4,0.9-0.6
		c0.3-0.1,0.7-0.2,1-0.2c0.5,0,1,0.2,1.4,0.5c0.4,0.4,0.5,1,0.5,1.6L45.1,16.8z"/>
	<path class="st1" d="M56.2,11.8c0,0.3-0.1,0.7-0.2,1c-0.1,0.3-0.3,0.6-0.5,0.8c-0.3,0.3-0.6,0.5-1,0.6c-0.4,0.2-0.9,0.2-1.3,0.2
		h-1.1v2.4h-1.9V9.5h3.1c0.4,0,0.8,0,1.2,0.1c0.3,0.1,0.6,0.2,0.8,0.4c0.3,0.2,0.5,0.4,0.7,0.7C56.2,11.1,56.2,11.4,56.2,11.8z
		 M54.3,11.8c0-0.2-0.1-0.4-0.2-0.5C54,11.1,53.9,11,53.7,11c-0.2-0.1-0.4-0.1-0.6-0.1h-1.1V13h0.5c0.3,0,0.5,0,0.8-0.1
		c0.2,0,0.4-0.1,0.5-0.2c0.1-0.1,0.2-0.2,0.3-0.4C54.3,12.2,54.3,12,54.3,11.8L54.3,11.8z"/>
	<path class="st1" d="M63.1,14.1c0,0.8-0.2,1.6-0.8,2.1c-1.3,1-3.1,1-4.4,0c-0.5-0.6-0.8-1.3-0.8-2.1c0-0.8,0.2-1.6,0.8-2.1
		c0.6-0.5,1.4-0.8,2.2-0.8c0.8-0.1,1.6,0.2,2.2,0.8C62.8,12.5,63.1,13.3,63.1,14.1z M60.9,15.4c0.1-0.1,0.2-0.3,0.3-0.5
		c0.1-0.3,0.1-0.5,0.1-0.8c0-0.3,0-0.5-0.1-0.8c0-0.2-0.1-0.4-0.2-0.5c-0.1-0.1-0.2-0.2-0.4-0.3c-0.2-0.1-0.3-0.1-0.5-0.1
		c-0.2,0-0.3,0-0.5,0.1c-0.1,0.1-0.3,0.2-0.4,0.3C59.1,12.9,59,13,59,13.2c-0.1,0.3-0.1,0.6-0.1,0.8c0,0.3,0,0.5,0.1,0.8
		c0,0.2,0.1,0.4,0.3,0.5c0.1,0.1,0.2,0.2,0.4,0.3c0.2,0.1,0.3,0.1,0.5,0.1c0.2,0,0.3,0,0.5-0.1C60.7,15.6,60.8,15.5,60.9,15.4z"/>
	<path class="st1" d="M68.3,13h-0.2l-0.4-0.1h-0.4c-0.2,0-0.4,0-0.7,0c-0.2,0-0.4,0.1-0.6,0.2v3.7h-1.8v-5.5h1.8v0.8
		c0.3-0.3,0.6-0.5,1-0.7c0.3-0.1,0.5-0.2,0.8-0.2h0.2h0.2V13z"/>
	<path class="st1" d="M72.8,16.7c-0.2,0.1-0.4,0.1-0.6,0.1c-0.2,0-0.5,0-0.8,0c-0.5,0-1.1-0.1-1.5-0.4c-0.4-0.4-0.6-0.9-0.5-1.4
		v-2.5h-0.7v-1.2h0.7V9.7h1.8v1.6h1.6v1.2h-1.6V15c0,0.1,0,0.3,0.1,0.4c0,0.1,0.1,0.2,0.2,0.3c0.2,0.1,0.3,0.1,0.5,0.1
		c0.1,0,0.2,0,0.3-0.1c0.1,0,0.2-0.1,0.3-0.1h0.2V16.7z"/>
	<path class="st1" d="M77.4,10.5h-0.1L77,10.4c-0.1,0-0.3,0-0.4,0c-0.2,0-0.5,0-0.7,0.2c-0.1,0.2-0.2,0.5-0.2,0.7v0.1h1.3v1.2h-1.3
		v4.3H74v-4.3h-0.8v-1.2H74v-0.1c0-0.6,0.2-1.1,0.5-1.5c0.4-0.4,1-0.6,1.6-0.5c0.3,0,0.5,0,0.7,0l0.6,0.1L77.4,10.5z"/>
	<path class="st1" d="M83.7,14.1c0,0.8-0.2,1.6-0.8,2.1c-1.3,1-3.1,1-4.4,0c-0.5-0.6-0.8-1.3-0.8-2.1c0-0.8,0.2-1.6,0.8-2.1
		c0.6-0.5,1.4-0.8,2.2-0.8c0.8-0.1,1.6,0.2,2.2,0.8C83.4,12.5,83.7,13.3,83.7,14.1z M81.5,15.4c0.1-0.1,0.2-0.3,0.3-0.5
		c0.1-0.3,0.1-0.5,0.1-0.8c0-0.3,0-0.5-0.1-0.8c0-0.2-0.1-0.4-0.2-0.5c-0.1-0.1-0.2-0.2-0.4-0.3c-0.2-0.1-0.3-0.1-0.5-0.1
		c-0.2,0-0.3,0-0.5,0.1c-0.1,0.1-0.3,0.2-0.4,0.3c-0.1,0.2-0.2,0.3-0.3,0.5c-0.1,0.3-0.1,0.6-0.1,0.8c0,0.3,0,0.5,0.1,0.8
		c0,0.2,0.1,0.4,0.2,0.5c0.1,0.1,0.2,0.2,0.4,0.3c0.2,0.1,0.3,0.1,0.5,0.1c0.2,0,0.3,0,0.5-0.1C81.3,15.6,81.4,15.5,81.5,15.4z"/>
	<path class="st1" d="M86.7,16.8H85V9.2h1.8L86.7,16.8z"/>
	<path class="st1" d="M90.2,10.5h-1.9V9.2h1.9V10.5z M90.1,16.8h-1.8v-5.5h1.8L90.1,16.8z"/>
	<path class="st1" d="M97.4,14.1c0,0.8-0.2,1.6-0.8,2.1C96,16.7,95.2,17,94.4,17c-0.8,0.1-1.6-0.2-2.2-0.8c-0.5-0.6-0.8-1.3-0.8-2.1
		c0-0.8,0.2-1.6,0.8-2.1c1.3-1,3.1-1,4.4,0C97.2,12.5,97.4,13.3,97.4,14.1z M95.2,15.4c0.1-0.1,0.2-0.3,0.3-0.5
		c0.1-0.3,0.1-0.5,0.1-0.8c0-0.3,0-0.5-0.1-0.8c0-0.2-0.1-0.4-0.2-0.5c-0.1-0.1-0.2-0.2-0.4-0.3c-0.2-0.1-0.3-0.1-0.5-0.1
		c-0.2,0-0.3,0-0.4,0.1c-0.1,0.1-0.3,0.2-0.4,0.3c-0.1,0.2-0.2,0.3-0.3,0.5c-0.1,0.3-0.1,0.6-0.1,0.8c0,0.3,0,0.5,0.1,0.8
		c0,0.2,0.1,0.4,0.2,0.5c0.1,0.1,0.2,0.2,0.4,0.3c0.2,0.1,0.3,0.1,0.5,0.1c0.2,0,0.3,0,0.5-0.1C95,15.6,95.1,15.5,95.2,15.4z"/>
</g>
</svg>
